<?xml version="1.0" encoding="UTF-8"?>
<svg id="Camada_1" data-name="Camada 1" xmlns="http://www.w3.org/2000/svg" version="1.1" viewBox="0 0 391.1 400">
  <defs>
    <style>
      .cls-1 {
        fill: #005ca9;
        stroke-width: 0px;
      }
    </style>
  </defs>
  <g id="Layer_2" data-name="Layer 2">
    <g>
      <path class="cls-1" d="M145.7,202.8c-.8-8.3-4.5-16.1-10.8-21.4-5.5-4.5-12.4-6.8-19.2-6.3l-57.8,5c-15.1,1.3-26.2,15.9-24.7,32.3l10.8,128.6c.8,8.3,4.5,16.1,10.8,21.4,4.8,4,10.8,6.3,16.9,6.3h2.3l57.8-5c15.1-1.3,26.2-15.9,24.7-32.3l-10.8-128.6ZM58.9,192.9l57.8-5h1c3,0,6.3,1.3,8.8,3.3,3.5,3,5.8,7.6,6.3,12.6l4.8,57.2-87.3,7.8-4.8-57.2c-.8-9.3,5.3-17.9,13.4-18.7ZM130.5,351.3l-57.8,5c-3.5.3-7.1-.8-9.8-3.3-3.5-3-5.8-7.6-6.3-12.6l-4.8-56.5,87.3-7.8,4.8,56.5c.8,9.6-5.3,17.9-13.4,18.7Z"/>
      <path class="cls-1" d="M280.3,98.4c-1.5-3-5.3-4.5-8.3-2.8l-55.7,27.2c-3,1.5-4.5,5.3-2.8,8.3,1,2.3,3.3,3.5,5.5,3.5s1.8-.3,2.8-.8l55.7-27.2c3-1.3,4.3-5,2.8-8.3Z"/>
      <path class="cls-1" d="M284.9,119.1c-1.5-3-5.3-4.5-8.3-2.8l-42.9,20.9c-3,1.5-4.5,5.3-2.8,8.3,1,2.3,3.3,3.5,5.5,3.5s1.8-.3,2.8-.8l42.9-20.9c3-1.5,4.3-5.3,2.8-8.3Z"/>
      <path class="cls-1" d="M286.6,145c-1.5-3-5.3-4.5-8.3-2.8l-28.5,13.9c-3,1.5-4.5,5.3-2.8,8.3,1,2.3,3.3,3.5,5.5,3.5s1.8-.3,2.8-.8l28.5-13.9c3-1.3,4.5-5,2.8-8.3Z"/>
      <path class="cls-1" d="M390,330.6l-58.5-112.5c7.1-20.4-1.3-34.6-8.1-40.9,1.3-1.5,2.5-3.3,3.8-5,13.6-19.9,9.6-42.1,7.6-54.2l-.3-1.8c-5.5-31.5-16.1-73.1-34.6-92.1-29.3-30-69.9-12.1-71.6-11.1l-37.8,18.4c-3.3-4.3-7.3-8.3-11.3-12.1C163.1,5.3,142.4-1.5,121.2.3,76.8,3.8,43.3,43.7,46.6,89.3c.5,6.8,1.8,13.6,3.8,19.9l-11.1,1C15.8,112.2-1.9,133.7.2,157.6l16.9,202c1,11.9,6.6,22.7,15.6,30.3,7.8,6.6,17.1,10.1,27.2,10.1s2.5,0,3.8-.3l86-7.6c23.5-2,41.1-23.5,39.1-47.4l-15.6-187.9c6.6,9.8,13.9,19.4,20.4,27.7l1,1.3c7.6,9.3,21.7,27,45.4,29,2,.3,4,.3,6.1.3s4.8-.3,7.3-.3c.5,9.6,6.1,24.7,25.7,32l52.5,115.8c1,2,2.5,3.5,4.5,4.5l30.5,12.6c1,.5,2.3.8,3.3.8s2.5-.3,3.5-.8c2.3-1,4-2.8,4.8-5l12.9-36.3c.3-3,0-5.5-1-7.8ZM207.7,79.7v-2.5c0-1-.3-2.3-.3-3.3,6.1-5.5,15.6-12.1,30.8-17.4,8.3-3,13.6-3.8,16.9-3.8s3.8.5,4.5.8l-29.5,16.1-3.8,1.8c-8.6,3.8-14.4,6.3-18.7,8.3ZM164.1,96.6c-1.8-20.7,11.3-34.3,20.2-41.1,2.8,6.1,4.8,12.9,5.5,19.7-1.8,2.8-2.8,5-3.3,6.3-1.3,1.8-3,5.3-1.5,9.1s1.8,3.3,4.3,4.5c-2,11.6-7.1,22.2-14.4,31-6.6-11.6-10.1-21.7-10.8-29.5ZM63.7,88.3c-2.5-36.1,23.7-67.6,58.5-70.1,16.4-1.3,32.5,4,45.1,14.9,2.8,2.3,5,4.8,7.3,7.6-11.9,8.8-31,27.7-28.2,57.5.3,3,.8,6.1,1.5,9.3-7.1-3.8-15.1-5.3-23.2-4.8l-56.5,5c-2.5-6.1-4-12.6-4.5-19.4ZM147.7,374.8l-86,7.6c-6.6.5-12.9-1.5-17.9-5.8-5.3-4.5-8.6-11.1-9.3-18.2l-16.9-202c-1.3-14.4,9.1-27.2,22.9-28.5l17.4-1.5c1,1.5,2,3.3,3,4.8-9.8,1.5-16.9,10.6-15.9,20.7l.3,2.5c.5,5.3,2.8,9.8,6.8,13.1,3.3,2.8,7.6,4.3,11.9,4.3h1.8l42.4-3.8c10.3-1,17.9-10.3,17.1-20.7l-.3-2.5c-.5-5.3-2.8-9.8-6.8-13.1-3.8-3.3-8.6-4.8-13.6-4.3l-22.4,2c-1.5-1.5-2.8-3-4-4.5l48.4-4.3h2.3c5.8,0,11.3,2,15.9,5.8,5.3,4.5,8.6,11.1,9.3,18.2l16.9,202c1,14.1-9.3,27-23.2,28.2ZM96.2,140.5l9.3-.8h.5c1.5,0,2.8.5,3.8,1.5,1.3,1.3,2.3,2.8,2.3,4.5v1.3c-5.5-1.3-10.8-3.5-15.9-6.6ZM89.4,157.1l-25.2,2.3c-1.5.3-3-.3-4.3-1.5s-2.3-2.8-2.3-4.5l-.3-2.5c-.3-3.5,2.3-6.8,5.8-7.1l7.3-.8c5.5,5.5,12.1,10.3,18.9,14.1ZM241,197c-16.4-1.3-27-14.4-33.3-22.4l-1-1.3c-8.8-10.8-16.4-21.4-22.7-31,12.9-13.1,20.9-30.3,23.2-48.7,5-2,12.4-5.3,24-10.8l4-1.8,37.6-20.4.5-3c0-.8,1-8.3-5.3-13.4-6.6-5.5-17.9-5.3-34,.5-12.9,4.5-22.2,9.8-29.3,15.1-1.3-4.5-3-8.8-5-13.1l36.1-17.4c.3,0,9.8-4.5,22.2-4.5s20.4,2.5,29.3,11.9c11.6,12.1,22.4,42.4,29.8,83l.3,1.8c1.8,10.1,4.8,27-4.8,40.9-6.6,9.3-16.6,18.4-30.5,26.5l-2.3,1c-14.4,5.8-27.5,8.3-38.6,7.3ZM364.3,359.4l-18.7-7.8-52.5-116c-1-2.3-3-4-5.5-4.8-17.1-5-17.1-16.6-16.9-18.2v-1.3c5.3-1.3,10.6-3,16.1-5l3.8-1.8.5-.3c7.6-4.5,14.4-9.3,20.2-14.4h0c1,.8,10.1,8.1,2.8,25.2-1,2.5-1,5.3.3,7.6l58.5,112.7-8.6,24Z"/>
      <path class="cls-1" d="M69.5,231.3h.5c-.3,1.3-.3,2.8-.3,4l.8,9.1c.3,3.8,2,7.3,5,9.8,2.5,2,5.5,3.3,8.8,3.3h1.3l15.9-1.5c7.6-.8,13.4-7.6,12.6-15.4l-.8-9.1c0-1.5-.5-2.8-1-4h.8l-1-11.1c-.5-5-2.8-9.8-6.6-12.9-3.8-3.3-8.6-4.8-13.4-4.3l-6.6.5c-10.1,1-17.7,10.1-16.9,20.4l.8,11.1ZM100.3,243.4l-15.9,1.5c-.3,0-.5,0-.8-.3s-.5-.5-.5-1l-.8-9.1c0-.8.5-1.8,1.3-1.8l15.9-1.5h0c.3,0,.5,0,.8.3s.5.5.5,1l.8,9.1c0,.8-.5,1.5-1.3,1.8ZM86.7,212.4l6.6-.5c1.5-.3,3,.3,4.3,1.3s2,2.5,2.3,4.3v1h-1.5l-15.9,1.5c-.5,0-.8,0-1.3.3v-1c-.3-3.5,2.3-6.6,5.5-6.8Z"/>
      <path class="cls-1" d="M122.5,319.6c-.3-3.8-2-7.3-5-9.8-2.8-2.3-6.3-3.5-10.1-3.3l-15.9,1.5c-.5,0-.8,0-1.3.3v-1c-.3-3.5,2-6.6,5.3-6.8l6.6-.5h.5c1.8-.3,4,0,4.8.8.3.3.3.8.3,1l12.6-.8c-.3-5.3-2.8-8.6-5-10.1-5.3-4.3-12.6-3.5-14.6-3.3l-6.6.5c-10.1,1-17.7,10.1-16.9,20.4l1,11.1h.5c-.3,1.3-.3,2.8-.3,4l.8,9.1c.3,3.8,2,7.3,5,9.8,2.5,2,5.5,3.3,8.8,3.3h1.3l15.9-1.5c7.6-.8,13.4-7.6,12.6-15.4l-.3-9.3ZM109.4,331.7l-15.9,1.5c-.3,0-.5,0-.8-.3s-.5-.5-.5-1l-.8-9.1c0-.8.5-1.8,1.3-1.8l15.9-1.5h0c.3,0,.5,0,.8.3s.5.5.5,1l.8,9.1c0,.8-.5,1.5-1.3,1.8Z"/>
    </g>
  </g>
</svg>