<?xml version="1.0" encoding="UTF-8"?>
<svg id="Camada_1" data-name="Camada 1" xmlns="http://www.w3.org/2000/svg" version="1.1" viewBox="0 0 400 267">
  <defs>
    <style>
      .cls-1 {
        fill: #005ca9;
        stroke-width: 0px;
      }
    </style>
  </defs>
  <g id="Layer_2" data-name="Layer 2">
    <path class="cls-1" d="M398.2,91.7c-2.8-3.5-7.9-3.9-11.3-.9l-66.5,55.4c-30.3-23.6-82.2-63-89.9-68.8-2.8-2.1-6.7-2.1-9.7,0-14.8,10.9-34.3,23.2-40.1,23.9-9.7.9-16.2-3.5-17.4-5.8,10.2-14.1,38.7-49.8,51.4-56.3,14.1-7.2,33.6-5.8,33.8-5.8h.5c12.3.2,74.1.9,92.6-17.8,3.2-3.2,3-8.3,0-11.6-3.2-3.2-8.3-3-11.6,0-10.7,10.7-54.9,13.7-80.4,13-2.8-.2-24.8-1.4-42.4,7.4-1.9.9-3.7,2.1-5.8,3.7-17.4-12.3-51.6-12.3-79.4-12.3S64,.9,63.5.7c-4.2-1.9-8.8.2-10.7,4.2-1.9,4.2.2,8.8,4.2,10.7,1.6.7,38.4,16.4,65.1,16.4s51.6,0,66.5,7.4c-18.8,18.8-38.9,46.5-39.1,46.8-3.7,5.1-3.7,11.6-.5,17.1,5.6,9.5,19.2,15.1,33.1,13.7,10.7-1.2,32-15.3,43.1-23.4,40.5,30.6,98.4,74.8,104.4,80.8s5.8,8.6,5.8,12.7c-.2,3.2-1.6,6.3-4.9,8.8-5.8,4.9-17.1-.9-20.8-3.2l-6.7-5.1c-1.4-2.1-2.8-3.9-4.6-5.8-7.9-7.9-51.9-40.5-57-44.2-3.7-2.8-8.6-1.9-11.3,1.6-2.5,3.7-1.9,8.6,1.6,11.3,19.2,14.1,49.8,37.3,55.1,42.6,3,3,4.9,6.9,4.6,10.2-.2,2.5-1.4,4.9-3.7,6.7-5.3,4.4-16.7-3-16.9-3-.5-.2-.9-.5-1.4-.7-2.5-3-5.1-5.1-5.8-5.6l-41.9-32.2c-3.5-2.8-8.6-2.1-11.3,1.4s-2.1,8.6,1.4,11.3l42.1,32.4c1.4,1.2,4.4,4.2,4.6,6.7,0,1.4-.7,3-2.5,4.6-6.5,6.5-16.9.9-18.5,0l-37.3-27.6c-3.7-2.5-8.6-1.9-11.3,1.6-2.5,3.7-1.9,8.6,1.6,11.3l32.9,24.1c0,.5-.2.9-.2,1.2,0,8.1-6.7,14.8-14.8,14.8s-7.9-1.6-10.7-4.6c.5-1.9.7-3.7.7-5.6,0-13.9-11.3-25.2-25.2-25.2s-5.8.5-8.3,1.4c-3.2-10.2-13-17.6-24.1-17.6h-1.9c-2.1-11.8-12.5-21.1-25-21.1s-2.1,0-3,.2c-1.4-13.2-11.1-24.1-23.9-26.9L13.2,89.2c-3.5-2.8-8.6-2.5-11.3.9-2.8,3.5-2.5,8.6.9,11.3l62.5,53c-9.5,5.3-15.7,15.3-15.7,26.9,0,16.9,13.7,30.6,30.6,30.6s6.3-.5,9.3-1.4c3,10.4,12.7,18.3,24.3,18.3h1.9c2.1,11.8,12.5,21.1,25,21.1s5.8-.5,8.3-1.4c3.2,10.2,13,17.6,24.1,17.6s11.8-2.1,16.2-5.8c5.6,4.4,12.3,6.7,19.5,6.7,14.8,0,27.1-10.4,30.3-24.1,3,.9,6.3,1.4,9.7,1.4,6.5,0,13.4-2.1,19.2-7.9,3.5-3.5,5.6-7.2,6.5-10.4,3,.9,6,1.4,9.3,1.4,5.1,0,10.2-1.4,14.8-5.1,4.4-3.7,7.4-8.1,8.8-13.2,5.1,2.5,11.3,4.4,17.8,4.4s11.3-1.6,16.2-5.6c6.7-5.6,10.4-12.5,10.7-20.4.5-8.8-3.5-18.1-10.4-25s-4.2-3.7-8.1-6.9l63.9-53.3c3-2.1,3.5-7.2.7-10.7ZM66.1,182.3c0-7.9,6.5-14.4,14.4-14.4s14.4,6.5,14.4,14.4-6.5,14.4-14.4,14.4-14.4-6.5-14.4-14.4ZM104.7,204.3c0-5.1,4.2-9,9-9s9,4.2,9,9-.2,2.3-.7,3.2c-1.2,1.2-2.3,2.5-3.2,4.2-1.4,1.2-3.2,1.6-5.3,1.6-4.6,0-8.8-3.9-8.8-9ZM140.6,234.4c-5.1,0-9-4.2-9-9s.2-2.3.7-3.2c1.2-1.2,2.3-2.5,3.2-4.2,1.4-1.2,3.2-1.6,5.3-1.6,5.1,0,9,4.2,9,9s-4.2,9-9.3,9ZM173,250.6c-5.1,0-9-4.2-9-9s4.2-9,9-9,9,4.2,9,9-3.9,9-9,9Z"/>
  </g>
</svg>