<?xml version="1.0" encoding="UTF-8"?>
<svg id="Camada_1" data-name="Camada 1" xmlns="http://www.w3.org/2000/svg" version="1.1" viewBox="0 0 400 344.7">
  <defs>
    <style>
      .cls-1 {
        fill: #005ca9;
        stroke-width: 0px;
      }
    </style>
  </defs>
  <g id="Layer_2" data-name="Layer 2">
    <g>
      <path class="cls-1" d="M399.7,159.3l-10.9-32.7c-1.2-3.5-5-5.4-8.5-4.3l-15.3,5-4.8-14.7c-.6-1.7-1.7-3.1-3.5-3.9-1.6-.8-3.5-1-5.2-.4l-18.8,6.2-5.6-17.1c-.6-1.9-1.9-3.3-3.9-4.1l-33.9-14.1c-1.7-.8-3.7-.8-5.2,0-1.4.6-2.5,1.7-3.3,2.9,1-6,1.2-12.2.4-18.4-1.9-19-11.2-36-26.2-47.9C240,4.1,221.4-1.6,202.6.4c-18.4,1.9-35.1,10.9-47.1,25-1,1.2-1.6,2.7-1.6,4.1-15.7,9.3-27.7,24.4-32.6,42.8-12.6,5.2-23.1,14.3-29.6,26.2-7.6,13.6-9.3,29.3-4.8,44,2.9,9.9,8.5,18.6,16.3,25.6,1.7,1.6,3.5,2.9,5.4,4.3l-90.7,20c-2.5.6-4.3,3.1-3.7,5.8.6,2.3,2.5,3.9,4.7,3.9s.8,0,1-.2l99.6-22.3c.6-.2,1-.4,1.6-.6,2.3,1,5.2,1.9,8.9,2.7-2.5,1.7-4.1,4.5-4.8,7.4l-.2,1.2h-.6l-74,13.6c-8.3,1.6-14.9,8.1-16.5,16.3l-14.7,77.1-13.4-2.5c-2.7-.6-5.2,1.2-5.6,3.9-.6,2.7,1.2,5.2,3.9,5.6l213.9,40.7h1c2.3,0,4.3-1.6,4.8-3.9.6-2.7-1.2-5.2-3.9-5.6l-19-3.7,17.4-91.3c1.6-8.3-2.1-16.7-9.3-21.3l-61.4-38.4c.6-.2,1-.2,1.6-.4.8-.2,1.6-.8,2.1-1.4h.2c3.1-.2,6.2-.6,9.1-1.4l90.1,58.5c.8.6,1.7.8,2.7.8,1.6,0,3.1-.8,4.1-2.1,1.6-2.3.8-5.2-1.4-6.8l-83.9-53.9c6.6-3.1,12.8-7.2,18-12.6,8.1-.4,20.3-1.7,30.4-6.2,4.1,3.3,11.8,10.5,18.6,16.7l66.5,58.9c1.2,1.2,2.9,1.7,4.5,1.7h.4l35.5-2.5c1.7-.2,3.5-1,4.7-2.3s1.7-3.1,1.6-4.8l-2.3-34.3c-.2-3.7-3.5-6.6-7.2-6.2l-16.1,1.2-1.2-15.5c-.2-3.7-3.5-6.6-7.2-6.2l-19.8,1.4-1-14.5,58.9,30.4c1,.6,1.9.8,3.1.8s1.4-.2,2.1-.4l33.7-11.2c3.5-1.6,5.4-5.4,4.3-8.9ZM156.3,323.4l-19.2-3.7,6-32,19.2,3.7-6,32ZM204.7,237.9l-17.4,91.3-23.4-4.5,6.4-33.5c.6-3.3-1.7-6.6-5.2-7.4l-21.7-4.1c-1.7-.4-3.5,0-4.8,1s-2.3,2.3-2.5,3.9l-6.4,33.5-97.1-18.4,14.7-77.1c.6-2.7,2.7-5,5.6-5.6l69.4-12.8-11.8,57-7.4-1.4c.2-.4.4-.8.6-1.4l3.9-20.5c.2-1,0-2.1-.6-2.9s-1.6-1.4-2.5-1.6l-35.3-6.8c-2.1-.4-4.1,1-4.5,3.1l-4.1,21.9-8.1-1.6c-2.7-.6-5.2,1.2-5.6,3.9s1.2,5.2,3.9,5.6l62.8,12h1c2.3,0,4.3-1.6,4.7-3.9l15.9-77.1c.2-1,.8-1.4,1.2-1.7.4.6,1,1.2,1.7,1.6l63.9,39.9c2.3,1.9,3.5,4.8,2.9,7.6ZM96,258.7l-27.9-5.2,3.5-18,27.7,5.2-3.1,16.7c-.4.6-.4,1-.2,1.4ZM149.5,159.3c-2.3-1.6-5.2-.8-6.8,1.4-1.6,2.3-.8,5.2,1.4,6.8l4.5,2.9c-.4.2-.8.6-1.2,1-.4,0-1,0-1.4.2-12.6,4.1-24-2.7-24-2.7-.2-.2-.4-.2-.6-.2-4.3-1.9-8.3-4.7-11.8-7.8-6.4-5.6-11-13-13.4-21.1-3.7-12.2-2.1-25.2,4.1-36.4,4.5-8.1,11-14.5,19-19-1.7,17.8,3.1,35.3,14,49.6,10.5,14.1,25.6,23.6,42.6,27.1-4.3,2.9-8.9,5.2-14,6.8l-12.4-8.5ZM312.5,175.5l1.2,15.5c.2,3.7,3.5,6.6,7.2,6.2l16.1-1.2,1.6,20.7-26,1.7-64.1-56.8c-20-18.8-23.6-21.3-26.5-21.3s-1,0-1.6.2c-.8.2-1.6.4-2.1.8-5,2.7-11.4,4.3-17.4,5.2,4.5-8.9,6.4-18.8,5.8-28.9-.2-1.7-.4-3.5-.6-5.2,1.7-1.2,3.5-2.7,4.8-4.3,4.7-5.4,7-12.2,6.4-19.4-.6-7.2-3.7-13.6-9.1-18.2s-12.2-7-19.4-6.4-13.6,3.7-18.2,9.1-7,12.2-6.4,19.4c1,14,12.6,24.6,26.5,24.6h1.9c1.4-.2,2.7-.4,4.1-.6,0,.6.2,1.2.2,1.9.8,10.5-2.1,20.7-7.9,29.3-3.5.2-6,0-6.8,0-15.1-2.3-28.5-10.3-37.6-22.5-9.3-12.4-13.2-27.5-10.9-42.8,4.5-31.6,33.9-53.5,65.5-49,31.6,4.5,53.5,33.9,49,65.5-1.2,7.8-3.7,14.9-7.8,21.7-1.6,2.7-1.2,6,1,8.3l8.7,8.7c1.4,1.4,3.5,2.1,5.4,1.9s3.9-1.2,5-2.9l2.5-3.7,21.3,16.1,1.6,21.5c.2,3.7,3.5,6.6,7.2,6.2l19.4-1.6ZM203.2,101.9l-.4.4c-1.7-4.5-3.9-8.9-6.8-12.8-3.3-4.7-7.2-8.7-11.8-12.2-.6-.6-1.4-.8-2.1-1,2.1-1.2,4.7-1.9,7.2-2.1h1.2c4.1,0,7.9,1.4,11,4.1,3.5,2.9,5.4,7,5.8,11.6h0c.4,4.3-1.2,8.5-4.1,12ZM176.4,81.4c.2,1.4.8,2.5,1.9,3.5,3.7,2.9,7.2,6.4,9.9,10.3,2.7,3.7,4.7,7.9,6.2,12.2-1,.2-1.7.4-2.7.4-9.3.6-17.4-6.4-18-15.7-.4-3.9.6-7.6,2.7-10.7ZM360.1,165.3l-76.2-39.3c-14.1-7.8-21.3-11.6-25.6-13.2,1.2-3.9,2.1-7.8,2.7-11.8,5.6-38.9-21.5-75.2-60.5-80.8-5.6-.8-11-1-16.5-.4,6.2-3.1,13-5.2,20-6,15.3-1.6,30.4,2.7,42.4,12.6,12,9.7,19.6,23.4,21.1,38.8.8,7.8.2,15.5-2.1,22.9-1,2.9.4,6.2,3.1,7.8l10.7,6.2c1.7,1,3.9,1.2,5.8.6s3.5-2.1,4.1-4.1l1.6-4.3,24.6,10.3,6.8,20.5c.6,1.7,1.7,3.1,3.5,3.9,1.6.8,3.5,1,5.2.4l18.8-6.2,4.8,14.7c1.2,3.5,5,5.4,8.5,4.3l15.3-5,6.6,19.8-24.8,8.5Z"/>
      <path class="cls-1" d="M155.9,262.4c1.2.2,2.3.4,3.5.4,8.5,0,16.3-6,17.8-14.7,1-4.8-.2-9.7-2.9-13.6s-6.8-6.8-11.6-7.6c-4.8-1-9.7.2-13.6,2.9-4.1,2.7-6.8,6.8-7.6,11.6-1,4.8.2,9.7,2.9,13.6,2.5,3.9,6.8,6.6,11.4,7.4ZM149.1,242.6c.6-2.7,2.1-5,4.5-6.6,1.7-1.2,3.7-1.7,5.8-1.7s1.4,0,1.9.2c2.7.6,5,2.1,6.6,4.5s2.1,5,1.6,7.8c-1.2,5.6-6.6,9.3-12.2,8.3-2.7-.6-5-2.1-6.6-4.5-1.6-2.5-2.1-5.2-1.6-7.9Z"/>
    </g>
  </g>
</svg>