<?xml version="1.0" encoding="UTF-8"?>
<svg id="Camada_1" data-name="Camada 1" xmlns="http://www.w3.org/2000/svg" version="1.1" viewBox="0 0 400 160.8">
  <defs>
    <style>
      .cls-1 {
        fill: #005ca9;
        stroke-width: 0px;
      }
    </style>
  </defs>
  <g id="Layer_2" data-name="Layer 2">
    <path class="cls-1" d="M391.4,117.1h-1.4v-22c0-8.7-7-15.7-15.6-15.7h-3.5c-3.1-30.7-24.3-53.6-49.9-53.6h-18.5c-6,0-10.9,5.5-10.9,12.4v78.8h-9.3c.6-1.5,1-3.3,1-5V25C283.3,11.2,272.1,0,258.3,0H14C6.3.1,0,6.3,0,14v98.1c0,7.7,6.3,14,14,14h5.3c-.4,1.9-.6,3.8-.6,5.8,0,15.3,12.4,27.9,27.9,27.9s19-5.4,23.9-13.5c4.9,8,13.7,13.5,23.9,13.5,15.3,0,27.9-12.4,27.9-27.9s-.3-3.9-.6-5.8h77.6c-.4,1.9-.6,3.8-.6,5.8s.1,2.6.3,3.9h-17.7c-2.4,0-4.4,2-4.4,4.4s2,4.4,4.4,4.4h20.5c4.7,8.9,14,15.1,24.8,15.1s19.7-5.9,24.5-14.6h47.8c4.5,9.3,14.1,15.8,25.1,15.8s20.6-6.4,25.1-15.8h38.2c7,0,12.8-5.9,12.8-13.1v-6.3c-.1-4.7-3.9-8.6-8.6-8.6ZM300.4,38.4c0-2.3,1.3-3.6,2.1-3.6h18.5c20.5,0,38.1,19.4,41.1,44.8h-38.9c-2.4,0-4.4,2-4.4,4.4s2,4.4,4.4,4.4h51.2c3.8,0,6.8,3.1,6.8,6.9v21.9h-33.8c-.3,0-.5,0-.8.1-5-7.3-13.5-12.1-22.9-12.1s-17.9,4.8-22.9,11.9h-.5V38.4h0ZM46.4,150.8c-10.6,0-19.1-8.6-19.1-19.1s8.6-19.1,19.1-19.1,19.1,8.6,19.1,19.1-8.6,19.1-19.1,19.1ZM94.2,150.8c-10.6,0-19.1-8.6-19.1-19.1s8.6-19.1,19.1-19.1,19.1,8.6,19.1,19.1-8.6,19.1-19.1,19.1ZM202.6,117.2h-84.6c-4.9-7.9-13.7-13.3-23.8-13.3s-19,5.4-23.9,13.5c-4.9-8-13.7-13.5-23.9-13.5s-18.9,5.3-23.8,13.3h-8.8c-2.8,0-5.2-2.3-5.2-5.2V14c0-2.8,2.3-5.2,5.2-5.2h244.2c8.9,0,16.2,7.3,16.2,16.2v87c0,2.6-2,4.8-4.5,5h-.6c-.3,0-.4,0-.6.1h-17.7c-.3,0-.6,0-.9.1-4.9-8-13.7-13.3-23.8-13.3-9.8-.1-18.6,5.2-23.5,13.2ZM226.3,150.8c-10.6,0-19.1-8.6-19.1-19.1s8.6-19.1,19.1-19.1,19.1,8.6,19.1,19.1-8.7,19.1-19.1,19.1ZM253.9,136.1c.3-1.4.4-2.9.4-4.4s-.3-3.9-.6-5.8h43.1c-.6,2.3-.9,4.5-.9,6.9s.1,2.1.1,3.1h-42.1ZM323.7,152c-10.6,0-19.1-8.6-19.1-19.1s8.6-19.1,19.1-19.1,19.1,8.6,19.1,19.1-8.6,19.1-19.1,19.1ZM390.9,131.9c0,2.3-1.8,4.1-3.9,4.1h-35.7c.1-1,.1-2,.1-3.1,0-2.4-.3-4.8-.9-6.9h40.2v5.9h.1Z"/>
  </g>
</svg>