<?xml version="1.0" encoding="UTF-8"?>
<svg id="Camada_1" data-name="Camada 1" xmlns="http://www.w3.org/2000/svg" version="1.1" viewBox="0 0 400 272.2">
  <defs>
    <style>
      .cls-1 {
        fill: #005ca9;
        stroke-width: 0px;
      }
    </style>
  </defs>
  <g id="Layer_2" data-name="Layer 2">
    <g>
      <path class="cls-1" d="M392.6,179.2c4,0,7.4-3.4,7.4-7.4v-47c0-4-3.4-7.4-7.4-7.4h-42.8v-39c0-4-3.4-7.4-7.4-7.4h-204.9c-4,0-7.4,3.4-7.4,7.4v39h-44.5c-4,0-7.4,3.4-7.4,7.4v39.2h-42.8c-4,0-7.4,3.4-7.4,7.4v47c0,4,3.4,7.4,7.4,7.4h42.8v39c0,4,3.4,7.4,7.4,7.4h306.7c4,0,7.4-3.4,7.4-7.4v-47c0-4-3.4-7.4-7.4-7.4h-42.8v-31h43v-.2ZM385.2,164.4h-39.8c-.8-.4-1.7-.6-2.7-.6h-44.5v-31h44.5c1.1,0,2.1-.2,3.2-.6h39.6v32.3h-.2ZM239.6,132.8h42.8v31h-87.3v-31h44.5ZM187.7,179.2h44.5v31h-87.3v-31h42.8ZM335.3,85.6v31.6h-87.3v-31.6h87.3ZM144.9,85.6h87.1v31.6h-87.3v-31.6h.2ZM93,132h41.3c.8.4,1.9.6,3.2.6h42.8v31h-87.3v-31.6ZM43.1,178.6h39.8c.8.4,1.7.6,2.7.6h44.5v31h-44.5c-1.1,0-2.1.2-3.2.6h-39.6v-32.3h.2ZM93,225.6h87.3v31.6h-87.1v-31.6h-.2ZM195.1,257.2v-31.6h87.3v31.6h-87.3ZM385.2,257.2h-87.1v-31.6h44.5c1.1,0,2.1-.2,3.2-.6h39.6v32.3h-.2ZM335.3,210.2h-87.3v-31h87.3v31h0Z"/>
      <path class="cls-1" d="M126.6,48.5L109.3,4.6c-.6-1.9-2.1-3.4-4-4-1.9-.8-3.8-.8-5.7,0L4.7,37.9c-3.8,1.5-5.7,5.7-4.2,9.5l17.3,43.9c.6,1.9,2.1,3.4,4,4,.8.4,1.9.6,3,.6s1.9-.2,2.7-.4l94.9-37.3c4-1.7,5.7-5.9,4.2-9.7ZM29.2,78.8l-11.8-30.1,81.2-31.8,11.8,30.1-81.2,31.8Z"/>
    </g>
  </g>
</svg>