<?xml version="1.0" encoding="UTF-8"?>
<svg id="Camada_1" data-name="Camada 1" xmlns="http://www.w3.org/2000/svg" version="1.1" viewBox="0 0 400 256.5">
  <defs>
    <style>
      .cls-1 {
        fill: #005ca9;
        stroke-width: 0px;
      }
    </style>
  </defs>
  <g id="Layer_2" data-name="Layer 2">
    <g>
      <path class="cls-1" d="M306.9,208.9c-.5-.3-12.9-9.1-30.9-11.9-13.6-2.1-32.8-.9-52.4,13.4-10.8-74.6,74.6-130.7,75.5-131.2,2.8-1.7,3.6-5.5,1.7-8.3-1.7-2.8-5.5-3.6-8.3-1.9-.9.7-23.4,15.1-44.7,39.9-21.5,24.9-33.9,51.2-36.6,77.4-14.6-34.4-38-58.3-57.4-73.2-28-21.7-53.6-30.3-54.7-30.6-3.1-1-6.5.7-7.6,3.8-1,3.1.7,6.5,3.8,7.6.9.3,79.1,27.2,107.6,104.2-14.3-19.9-35.1-19.8-35.2-19.8-3.3,0-5.8,2.8-5.8,6s2.8,6,6,6h0c1.2,0,17.2.3,27.5,18.2-3.6-2.2-7.6-4-12-5-26.5-5.7-57.8,17.2-59,18.1-2.8,1.9-3.3,5.7-1.2,8.4,1.2,1.5,2.9,2.4,4.8,2.4s2.6-.3,3.6-1.2c7.7-5.7,31.6-19.8,49.3-16,7.2,1.5,12.7,5.8,16.8,13.1.2.2.2.3.3.5-7.4,3.1-14.6,8.3-21.5,15.8-2.2,2.4-2.1,6.2.3,8.4,2.4,2.2,6.2,2.1,8.4-.3,9.6-10.5,19.4-15.5,29.2-15,16,.9,27.3,16.2,27.5,16.3,1.2,1.5,2.9,2.4,4.8,2.4s2.4-.3,3.6-1.2c2.8-1.9,3.3-5.7,1.4-8.4-.5-.7-11.9-16.2-29.7-20.3,38.2-36.1,76.2-9.6,77.7-8.4,2.8,1.9,6.5,1.4,8.4-1.4,1.9-2.2,1.4-6-1.4-7.9Z"/>
      <path class="cls-1" d="M307.7,136.3c-1.2-.3-31.1-10-55.2,19.9-2.1,2.6-1.7,6.4.9,8.4,1,.9,2.4,1.4,3.8,1.4s3.4-.7,4.6-2.2c18.7-23,41.1-16.3,42.1-16,3.1,1,6.5-.7,7.6-3.8,1.2-3.3-.5-6.7-3.8-7.7Z"/>
      <path class="cls-1" d="M73.2,133.9c.5,3.3,3.6,5.5,6.9,5,.3,0,38.9-5.7,54.5,15.5,1.2,1.5,2.9,2.4,4.8,2.4s2.4-.3,3.6-1.2c2.8-1.9,3.3-5.7,1.2-8.4-19.9-27-64.1-20.6-66-20.3-3.3.7-5.5,3.8-5,7Z"/>
      <path class="cls-1" d="M61.5,115.4c1.9-1.4,2.8-3.6,2.4-5.8l-3.3-19.1,13.8-13.4c1.7-1.5,2.2-4,1.5-6.2-.7-2.2-2.6-3.8-4.8-4.1l-19.1-2.8-8.6-17.4c-1-2.1-3.1-3.4-5.3-3.4s-4.3,1.4-5.3,3.4l-8.6,17.4-19.1,2.8c-2.2.3-4.1,1.9-4.8,4.1-.7,2.2-.2,4.6,1.5,6.2l13.8,13.4-3.3,19.1c-.3,2.2.5,4.5,2.4,5.8,1,.7,2.2,1.2,3.6,1.2s1.9-.2,2.8-.7l17-8.9,17,8.9c2.1,1,4.5.7,6.4-.5ZM40.9,94.7c-.9-.5-1.9-.7-2.8-.7s-1.9.2-2.8.7l-9.1,4.8,1.7-10.1c.3-1.9-.3-4-1.7-5.3l-7.4-7.2,10.1-1.5c1.9-.3,3.6-1.5,4.5-3.3l4.5-9.3,4.5,9.3c.9,1.7,2.6,2.9,4.5,3.3l10.1,1.5-7.4,7.2c-1.4,1.4-2.1,3.4-1.7,5.3l1.7,10.1-8.8-4.8Z"/>
      <path class="cls-1" d="M183.1,78.4l-3.3,19.1c-.3,2.2.5,4.5,2.4,5.8,1,.7,2.2,1.2,3.6,1.2s1.9-.2,2.8-.7l17-8.9,17,8.9c2.1,1,4.5.9,6.4-.5,1.9-1.4,2.8-3.6,2.4-5.8l-3.3-19.1,13.8-13.4c1.7-1.5,2.2-4,1.5-6.2-.7-2.2-2.6-3.8-4.8-4.1l-19.1-2.8-8.6-17.4c-1-2.1-3.1-3.4-5.3-3.4s-4.3,1.4-5.3,3.4l-8.6,17.4-19.1,2.8c-2.2.3-4.1,1.9-4.8,4.1-.7,2.2-.2,4.6,1.5,6.2l13.8,13.4ZM196.5,63.4c1.9-.3,3.6-1.5,4.5-3.3l4.5-9.3,4.5,9.3c.9,1.7,2.6,2.9,4.5,3.3l10.1,1.5-7.4,7.2c-1.4,1.4-2.1,3.4-1.7,5.3l1.7,10.1-9.1-4.8c-1.7-.9-3.8-.9-5.7,0l-9.1,4.8,1.7-10.1c.3-1.9-.3-4-1.7-5.3l-7.4-7.2,10.7-1.5Z"/>
      <path class="cls-1" d="M339.4,61.7l-3.3,19.1c-.3,2.2.5,4.5,2.4,5.8,1.9,1.4,4.3,1.5,6.4.5l17-8.9,17,8.9c.9.5,1.9.7,2.8.7s2.4-.3,3.6-1.2c1.9-1.4,2.8-3.6,2.4-5.8l-3.3-19.1,13.8-13.4c1.7-1.5,2.2-4,1.5-6.2-.7-2.2-2.6-3.8-4.8-4.1l-19.1-2.8-8.6-17.4c-1-2.1-3.1-3.4-5.3-3.4s-4.3,1.4-5.3,3.4l-8.6,17.4-19.1,2.8c-2.2.3-4.1,1.9-4.8,4.1-.7,2.2-.2,4.6,1.5,6.2l13.8,13.4ZM352.9,46.8c1.9-.3,3.6-1.5,4.5-3.3l4.5-9.3,4.5,9.3c.9,1.7,2.6,2.9,4.5,3.3l10.1,1.5-7.4,7.2c-1.4,1.4-2.1,3.4-1.7,5.3l1.7,10.1-9.1-4.8c-1.7-.9-3.8-.9-5.7,0l-9.1,4.8,1.7-10.1c.3-1.9-.3-4-1.7-5.3l-7.4-7.2,10.7-1.5Z"/>
      <path class="cls-1" d="M394.2,166.3l-19.1-2.8-8.6-17.4c-1-2.1-3.1-3.4-5.3-3.4s-4.3,1.4-5.3,3.4l-8.6,17.4-19.1,2.8c-2.2.3-4.1,1.9-4.8,4.1-.7,2.2-.2,4.6,1.5,6.2l13.8,13.4-3.3,19.1c-.3,2.2.5,4.5,2.4,5.8,1,.7,2.2,1.2,3.6,1.2s1.9-.2,2.8-.7l17-8.9,17,8.9c2.1,1,4.5.9,6.4-.5,1.9-1.4,2.8-3.6,2.4-5.8l-3.3-19.1,13.8-13.4c1.7-1.5,2.2-4,1.5-6.2-.7-2.2-2.6-3.8-4.8-4.1ZM373.1,183.6c-1.4,1.4-2.1,3.4-1.7,5.3l1.7,10.1-9.1-4.8c-.9-.5-1.9-.7-2.8-.7s-1.9.2-2.8.7l-9.1,4.8,1.7-10.1c.3-1.9-.3-4-1.7-5.3l-7.4-7.2,10.1-1.5c1.9-.3,3.6-1.5,4.5-3.3l4.5-9.3,4.5,9.3c.9,1.7,2.6,2.9,4.5,3.3l10.1,1.5-7,7.2Z"/>
      <path class="cls-1" d="M111.5,182.1l-19.1-2.8-8.6-17.4c-1-2.1-3.1-3.4-5.3-3.4s-4.3,1.4-5.3,3.4l-8.6,17.4-19.1,2.8c-2.2.3-4.1,1.9-4.8,4.1-.7,2.2-.2,4.6,1.5,6.2l13.8,13.4-3.3,19.1c-.3,2.2.5,4.5,2.4,5.8,1,.7,2.2,1.2,3.6,1.2s1.9-.2,2.8-.7l17-8.9,17,8.9c2.1,1,4.5.9,6.4-.5,1.9-1.4,2.8-3.6,2.4-5.8l-3.3-19.1,13.8-13.4c1.7-1.5,2.2-4,1.5-6.2-.7-2.2-2.6-3.8-4.8-4.1ZM90.4,199.3c-1.4,1.4-2.1,3.4-1.7,5.3l1.7,10.1-9.1-4.8c-1.7-.9-3.8-.9-5.7,0l-9.1,4.8,1.7-10.1c.3-1.9-.3-4-1.7-5.3l-7.4-7.2,10.1-1.5c1.9-.3,3.6-1.5,4.5-3.3l4.5-9.3,4.5,9.3c.9,1.7,2.6,2.9,4.5,3.3l10.1,1.5-6.9,7.2Z"/>
      <path class="cls-1" d="M134.2,27.5c7.6,0,13.8-6.2,13.8-13.8S141.8,0,134.2,0s-13.8,6.2-13.8,13.8,6.2,13.8,13.8,13.8ZM134.2,12.2c.9,0,1.7.7,1.7,1.7s-.7,1.7-1.7,1.7-1.7-.7-1.7-1.7.7-1.7,1.7-1.7Z"/>
      <path class="cls-1" d="M281.6,31.5c7.6,0,13.8-6.2,13.8-13.8s-6.2-13.8-13.8-13.8-13.8,6.2-13.8,13.8,6.2,13.8,13.8,13.8ZM281.6,16c.9,0,1.7.7,1.7,1.7s-.7,1.7-1.7,1.7-1.7-.7-1.7-1.7.7-1.7,1.7-1.7Z"/>
      <path class="cls-1" d="M333.2,117.6c0,7.6,6.2,13.8,13.8,13.8s13.8-6.2,13.8-13.8-6.2-13.8-13.8-13.8c-7.6.2-13.8,6.2-13.8,13.8ZM348.6,117.6c0,.9-.7,1.7-1.7,1.7s-1.7-.7-1.7-1.7.7-1.7,1.7-1.7,1.7.9,1.7,1.7Z"/>
    </g>
  </g>
</svg>