<?xml version="1.0" encoding="UTF-8"?>
<svg id="Camada_1" data-name="Camada 1" xmlns="http://www.w3.org/2000/svg" version="1.1" viewBox="0 0 250.6 400">
  <defs>
    <style>
      .cls-1 {
        fill: #005ca9;
        stroke-width: 0px;
      }
    </style>
  </defs>
  <g id="Layer_2" data-name="Layer 2">
    <g>
      <path class="cls-1" d="M53.9,197.9c-.9.6-1.7,1.5-2.3,2l-.3.3c-14.3,14.3-20.1,30.6-17.2,47.8,2.9,18.6,14.8,30.9,32.9,33.8,2.6.6,5.2.6,7.6.6,17.5,0,29.4-10.5,38.1-20.1,14.8-16.6,20.7-39,16-63.2-1.2-5.5-6.4-9-11.9-8.2-5.5,1.2-9,6.4-8.2,11.9,2.3,12.5,2.3,30.6-11.4,45.7-10.2,11.1-17.5,14.8-27.4,13.1-9.3-1.5-14.6-7-16-16.9-1.7-10.8,1.7-20.1,11.4-29.7.6-.6,1.2-.9,1.7-1.5,4.1-3.5,9-7.6,11.4-14,4.4-9.9-1.5-18.3-4.7-23.6-.6-.6-.9-1.5-1.2-2,0,0,0-.3-.3-.3-1.7-2.6-3.8-5.2-5.5-7.6-2.9-4.1-5.8-7.6-7.6-11.4-2.9-5.5-2.6-11.4-1.5-18.3,2.9-15.7,13.4-29.1,28.2-36.7,15.4-7.6,32.6-7.9,47.8-.3,15.7,7.9,25.9,22.1,28.2,39.9,2.3,18.1-4.1,36.1-17.5,47.8-4.1,3.8-4.7,10.2-.9,14.3,3.8,4.1,10.2,4.7,14.3.9,18.3-16.3,27.7-41.1,24.2-65.8-3.2-24.5-17.8-44.5-39.3-55.3-20.7-10.2-44.8-10.2-65.8.3-20.7,10.2-34.9,28.8-39,51.2-1.5,9-2.3,19.8,3.2,31.4,2.6,5.2,6.1,9.6,9.3,14,1.7,2.3,3.2,4.4,4.7,6.7.6.9.9,1.5,1.5,2.3.9,1.5,2.3,3.8,2.6,4.7h0c0,1.7-3.2,4.4-5.2,6.1Z"/>
      <path class="cls-1" d="M221,55.2C197.7,24.7,163.9,5.5,126.1,1.1,78.9-4.7,33.5,13,4.7,48.6c-3.5,4.4-2.9,10.8,1.5,14.3s10.8,2.9,14.3-1.5c24.2-30,62.6-44.8,103.1-40.2,32.3,3.8,61.1,20.4,81.2,46.3,20.1,26.2,28.5,58.5,23.9,90.6-2.9,18.3-9.6,35.5-19.8,50.1-5.8,8.2-12.8,14.8-20.1,22.1s-10.2,9.9-15.1,15.7c-19.5,20.7-25.6,46.9-28.8,69.9v1.5h0c-.3,5.2-1.2,10.2-2.3,15.1,0,.6-.3,1.2-.3,1.5-.3.3-.3.6-.3,1.2-8.4,26.8-32.3,44.5-59.4,44.5s-61.1-27.4-62-62.3c0-5.5-4.7-9.9-10.2-9.9h-.3c-5.5,0-10.2,4.7-9.9,10.5.9,46,37.3,82.1,82.4,82.1s67.6-23.3,78.9-58.2c.6-1.5,1.5-3.5,1.5-5.8,1.2-5.8,2-11.6,2.6-17.5v-.3c2.9-20.7,7.9-41.9,23.6-58.2l.3-.3c4.4-5.2,9.3-9.6,14.3-14.6,7.6-7.6,15.7-15.1,22.4-24.7,11.9-16.9,20.1-37.3,23.3-58.8,5.2-38.1-4.7-75.7-28.2-106.3Z"/>
    </g>
  </g>
</svg>