<?xml version="1.0" encoding="UTF-8"?>
<svg id="Camada_1" data-name="Camada 1" xmlns="http://www.w3.org/2000/svg" version="1.1" viewBox="0 0 400 238.8">
  <defs>
    <style>
      .cls-1 {
        fill: #005ca9;
        stroke-width: 0px;
      }
    </style>
  </defs>
  <g id="Layer_2" data-name="Layer 2">
    <g>
      <path class="cls-1" d="M387.8,165.3c-8.7,5.2-20.8,8.1-33.5,8.1-21.1,0-44.9-9.5-44.9-23.2s-2.8-6.1-6.1-6.1h-1c-3.3,0-6.1,2.8-6.1,6.1,0,13.7-23.6,23.2-44.9,23.2s-44.9-9.5-44.9-23.2-2.8-6.1-6.1-6.1-1.2.2-1.7.3c-.5-.2-1-.3-1.7-.3-3.3,0-6.1,2.8-6.1,6.1,0,13.7-23.6,23.2-44.9,23.2s-44.9-9.5-44.9-23.2-2.8-6.1-6.1-6.1h-1.4c-3.3,0-6.1,2.8-6.1,6.1,0,13.7-23.6,23.2-44.9,23.2s-25-2.9-33.5-8.1c-2.9-1.7-6.6-.7-8.3,2.1-1.7,2.9-.7,6.6,2.1,8.3,10.6,6.2,24.8,9.9,39.7,9.9,23.2,0,42.6-8.1,51.7-20.1,9,12,28.4,20.1,51.7,20.1s44-8.7,52.5-21.5c8.5,12.7,28.6,21.5,52.5,21.5s42.5-8,51.5-19.9c9,12,28.4,19.9,51.5,19.9s29.1-3.5,39.7-9.9c2.9-1.7,3.8-5.4,2.1-8.3-1.4-2.9-5.2-3.8-8-2.1Z"/>
      <path class="cls-1" d="M349.3,226.6c-21.1,0-44.9-9.5-44.9-23.2s-2.8-6.1-6.1-6.1h-1c-3.3,0-6.1,2.8-6.1,6.1,0,13.7-23.6,23.2-44.9,23.2s-44.9-9.5-44.9-23.2-2.8-6.1-6.1-6.1-1.2.2-1.7.3c-.5-.2-1-.3-1.7-.3-3.3,0-6.1,2.8-6.1,6.1,0,13.7-23.6,23.2-44.9,23.2s-44.9-9.5-44.9-23.2-2.8-6.1-6.1-6.1h-1.4c-3.3,0-6.1,2.8-6.1,6.1,0,13.7-23.6,23.2-44.9,23.2s-6.1,2.8-6.1,6.1,2.8,6.1,6.1,6.1c23.2,0,42.6-8.1,51.7-20.1,9,12,28.4,20.1,51.7,20.1s44-8.7,52.5-21.5c8.5,12.7,28.6,21.5,52.5,21.5s42.5-8,51.5-19.9c9,12,28.4,19.9,51.5,19.9s6.1-2.8,6.1-6.1-2.4-6.1-5.7-6.1Z"/>
      <path class="cls-1" d="M396.4,65.3c-3.5-3.8-8.8-5.5-17.2-5.5h-62.6l-13.3-21c-2.8-4.3-7.8-6.8-13.2-6.6-7.8,0-26.2.2-47.5.5l-16.5-26.3c-2.8-4.3-8-6.8-13.3-6.2l-121.3,14.4c-3.3.3-6.2,2.3-8,5-1.6,2.6-1.9,5.9-.9,8.7l12.5,33.1-9.9.2c-3.3,0-6.6,1.6-8.8,4-2.1,2.3-3.1,5.2-2.9,8.3l1.7,26-43.5,1c-3.6.2-6.9,1.9-8.8,4.7-1.9,2.8-2.4,6.1-1.4,9.2.2.5.3,1,.7,1.6l27.6,41.3c1.2,1.7,3.1,2.8,5,2.8s2.3-.3,3.3-1c2.8-1.9,3.5-5.7,1.7-8.5l-25.3-37.8,173.2-4.2c1.6,0,3.1-.7,4.3-1.9l25.7-27.6c4.3-4.7,10.7-7.3,17.5-7.3h124.3c6.6,0,8,1.4,8.1,1.6.7.9.3,4.3,0,6.8l-.2,1.6c-5,47.2-43.7,59.6-45.2,60.2-3.1,1-5,4.3-4,7.6,1,3.1,4.3,5,7.6,4,1.9-.5,48-15.3,53.7-70.6l.2-1.6c.3-5.2,1-11.4-3.3-16.3ZM214.2,12.2c.7-.2,1.4.2,1.6.5l12.7,20.3c-12.7.3-25.7.9-38,1.6l-9.5-18.4,33.3-4ZM145.6,36.3l-7.6-15.1,30-3.5,9.2,17.7c-12.3.9-23.2,1.9-31,3.3,0-.9-.2-1.6-.5-2.4ZM94.8,26.2l30.5-3.6c0,.2.2.5.2.7l9.2,18.4c0,.2.2.2.2.3-.3.2-.7.3-1,.7l-25.7,18.4h-.3l-13-34.8ZM228.6,70.8l-23.9,25.7-117.5,2.9-1.7-25.7,24.8-.5c1.2,0,2.4-.3,3.5-1.2l27.4-19.6s.2,0,.2-.2c11.6-5.7,97.4-8,149.1-8h.3c1,0,1.9.3,2.4,1l9.2,14.4h-47.3c-10.2,0-19.8,4-26.3,11.1Z"/>
      <path class="cls-1" d="M151.1,67.5c-5,0-9.2,3.8-9.2,8.3s4.2,8.3,9.2,8.3,9.2-3.8,9.2-8.3-4.2-8.3-9.2-8.3Z"/>
      <ellipse class="cls-1" cx="182.3" cy="75.8" rx="9.2" ry="8.3"/>
    </g>
  </g>
</svg>