<?xml version="1.0" encoding="UTF-8"?>
<svg id="Camada_1" data-name="Camada 1" xmlns="http://www.w3.org/2000/svg" version="1.1" viewBox="0 0 382.6 400">
  <defs>
    <style>
      .cls-1 {
        fill: #005ca9;
        stroke-width: 0px;
      }
    </style>
  </defs>
  <g id="Layer_2" data-name="Layer 2">
    <g>
      <path class="cls-1" d="M186.5,238.9c-5.4,0-12.3-2-17.2-4.3-4-2-9.2-5.7-12.9-9.5l-13.5,25.2c6.3,5.2,12.9,8.6,18.3,10.6,6.9,2.9,14,4.3,21.2,4.6v20.4h18.9v-21.2c8.3-2,17.2-6.6,22.6-12.3,4-4.3,10.6-13.2,10.6-28.4s-2-15.8-9.5-22.9c-7.2-6.9-15.2-9.5-21.8-11.8l-9.7-3.4c-2.9-.9-6.9-3.2-8.6-4.6-2-2-2.6-4-2.6-6.3s1.4-4.9,2.9-6.3c2.6-2.6,6.9-3.4,11.2-3.4,9.2,0,16.9,4.9,21.2,8l12.3-24.1c-12.6-7.5-22.1-9.2-28.4-9.5v-20.6h-18.9v20.6c-9.2,1.7-17.2,6.3-22.9,12.3-5.4,6-9.5,14.6-9.5,26.7s2,15.5,8,21.8c2.9,3.2,8.6,7.5,20.6,11.8l11.2,3.7c4,1.4,6.6,2.6,8.6,3.7,2.6,2,3.7,4.3,3.7,7.2s-1.4,5.7-3.4,8c-3.2,2.6-7.5,4-12.6,4Z"/>
      <path class="cls-1" d="M314.7,319.7l-58.8-4.6c-5.4-.3-10.3,3.7-10.9,9.2-.3,5.4,3.7,10.3,9.2,10.9l46.4,3.4-.9,3.4c-3.2-4-9.2-5.2-13.5-2-37.3,25.8-82.3,35.6-127,27.5-44.7-8-83.4-33-109.2-70.2-34.1-49.3-39.9-113.5-14.6-168,2.3-5.2,0-10.9-4.9-13.2-5.2-2.3-10.9,0-13.2,4.9-28.1,60.8-21.8,132.7,16.3,187.8,29,41.6,72.2,69.7,122.1,78.6,11.5,2,22.9,3.2,34.1,3.2,37.3,0,73.7-11.2,105.5-32.4l-8.3,29.2c-1.4,5.4,1.7,10.9,6.9,12.3.9.3,1.7.3,2.9.3,4.3,0,8.3-2.9,9.7-7.2l17.2-60.5c.9-2.9.3-6-1.4-8.6-2-2.3-4.9-3.7-7.7-4Z"/>
      <path class="cls-1" d="M348.8,91.2C289.7,6.1,172.8-15.7,87.1,41.9l8.3-29.2c1.4-5.4-1.7-10.9-6.9-12.3-5.4-1.4-10.9,1.7-12.3,6.9l-17.2,60.5c-.9,2.9-.3,6,1.4,8.6s4.6,4,7.5,4.3l58.8,4.6h.9c5.2,0,9.5-4,10-9.2.3-5.4-3.7-10.3-9.2-10.9l-46.4-3.4.9-3.4c3.2,4.3,9.2,5.2,13.5,2,76.8-53.3,182.9-34.1,236.2,42.7,34.1,49.3,39.9,113.5,14.6,168-2.3,5.2,0,10.9,4.9,13.2,1.4.6,2.9.9,4.3.9,3.7,0,7.5-2.3,9.2-5.7,27.8-61.1,21.5-133-16.6-188.1Z"/>
    </g>
  </g>
</svg>