<?xml version="1.0" encoding="UTF-8"?>
<svg id="Camada_1" data-name="Camada 1" xmlns="http://www.w3.org/2000/svg" version="1.1" viewBox="0 0 364.3 400">
  <defs>
    <style>
      .cls-1 {
        fill: #005ca9;
        stroke-width: 0px;
      }
    </style>
  </defs>
  <g id="Layer_2" data-name="Layer 2">
    <g>
      <path class="cls-1" d="M353.7,210.4c-7.7-4.5-19.6-7.4-31-6.6,2.1-31.8-9-63.1-32.6-91.2-13.3-15.9-27.6-26.8-35.5-32.6,9.5-18,23.3-46.7,21.7-61.5-.3-2.4-1.3-4.8-3.4-6.4-1.9-1.6-4.5-2.4-6.9-2.1-.3,0-28.1,2.9-54.4-6.9-34.2-12.7-65.8,19.9-67.1,21.2-3.2,3.2-3.4,8.2-.8,11.9l30,40.6c-6.9,4.5-25.5,17.5-42.2,38.5-27.1,33.7-36.1,71.3-26.5,109.5h-1.1c-26,2.4-31.6,9.5-33.4,11.9-6.9,8.8-51.2,51.7-67.6,67.6-3.7,3.4-3.7,9.5-.3,13,1.9,1.9,4.2,2.9,6.6,2.9s4.5-.8,6.4-2.7c6.1-5.8,60.7-58.1,69.5-69.5,6.6-6.4,50.7-7.2,58.9-2.9,1.6,1.6,3.2,3.2,4.8,4.5,5.6,5.6,11.4,11.1,19.9,13,8.5,1.9,33.2,1.3,37.9,1.1h.8c6.1-.8,29.7-1.3,32.4,9.5,1.1,4.5,1.9,10.6-.8,14.1-3.2,4-10.3,4-10.3,4h-72.1c-5,0-9.3,4.2-9.3,9.3s4.2,9.3,9.3,9.3h71.6c2.4,0,16.4-.3,25.2-10.9,5.6-7.2,7.2-16.4,4.8-28.1l25.5-10.3c1.9-.8,3.7-2.4,4.5-4.2,0,0,6.1-10.9,21.5-28.6,4.2-5,11.1-6.1,16.2-6.1h.3c8,0,14.6,2.4,18,4.2-7.4,13-33.2,48-43.8,62.3-19.9,27.1-47.5,46.9-54.9,52-14.9,1.3-95,7.7-129.7,7.7s-73.5,35.5-74.8,37.1c-3.2,4-2.9,9.8,1.1,13,1.9,1.6,4,2.1,6.1,2.1s5.3-1.1,7.2-3.2c.3-.3,26.3-30.5,60.7-30.5s129.7-7.4,133.7-8c1.6,0,2.9-.5,4.2-1.6,1.6-1.1,36.3-23.9,61.5-57.8,33.2-44.8,45.6-63.4,48.3-71.1,1.3-2.7,2.4-10.6-9.8-17.5ZM205.2,20.7c19.6,7.2,39.3,8.5,51.5,8.5-3.7,13.5-14.3,35.3-23.6,51.5l-34.5-1.1-34.7-47.2c8.5-6.9,25.5-17.8,41.4-11.7ZM295.9,215.9c-12.2,14.1-19.1,24.4-22,29.2l-24.7,10.1c-11.7-9.8-31-10.9-43.5-9.5-11.1.3-28.4.3-32.9-.8-3.4-.8-6.6-4-11.1-8.2-1.9-1.6-3.7-3.4-5.6-5.3-6.1-5.3-20.2-6.9-32.1-7.2,0-.5,0-1.1-.3-1.6-9.3-33.4-1.9-65.5,22-95.5,15.9-20.2,34.5-32.6,39-35.5l1.3,1.9c1.6,2.4,4.2,3.7,7.2,3.7l44.6,1.6h.3c2.7,0,5-1.1,6.9-3.2,18.3,13.3,66.3,54.4,58.1,113.5-2.4,2.1-5,4.2-7.2,6.9Z"/>
      <path class="cls-1" d="M221.6,164.2l-5.6-1.9c-1.6-.5-4-1.9-5-2.7-1.1-1.1-1.6-2.4-1.6-3.7s.8-2.9,1.6-3.7c1.6-1.3,4-1.9,6.6-1.9,5.3,0,9.8,2.9,12.2,4.8l7.2-14.1c-7.4-4.5-13-5.3-16.4-5.6v-11.9h-10.9v11.9c-5.3,1.1-10.1,3.7-13.3,7.2s-5.6,8.5-5.6,15.4,1.1,9,4.8,12.7c1.6,1.9,5,4.2,11.9,6.9l6.4,2.1c2.4.8,3.7,1.3,5,2.1,1.3,1.1,2.1,2.4,2.1,4.2s-.8,3.4-1.9,4.5c-1.6,1.6-4.2,2.4-7.2,2.4s-7.2-1.3-10.1-2.4c-2.4-1.3-5.3-3.4-7.4-5.6l-8,14.6c3.7,2.9,7.4,5,10.6,6.4,4,1.6,8.2,2.4,12.5,2.7v11.9h10.9v-12.5c4.8-1.3,10.1-3.7,13-7.2,2.4-2.4,6.1-7.7,6.1-16.4s-1.3-9.3-5.6-13.3c-4-4.2-8.5-5.8-12.5-7.2Z"/>
    </g>
  </g>
</svg>