<?xml version="1.0" encoding="UTF-8"?>
<svg id="Camada_1" data-name="Camada 1" xmlns="http://www.w3.org/2000/svg" version="1.1" viewBox="0 0 306.4 400">
  <defs>
    <style>
      .cls-1 {
        fill: #005ca9;
        stroke-width: 0px;
      }
    </style>
  </defs>
  <g id="Layer_2" data-name="Layer 2">
    <g>
      <path class="cls-1" d="M226.8,0H7.7C3.5,0,0,3.5,0,7.7v384.7c0,4.2,3.5,7.7,7.7,7.7h291.1c4.2,0,7.7-3.5,7.7-7.7V79.6C306.4,35.7,270.7,0,226.8,0ZM291.1,384.7H15.3V15.3h211.5c35.3,0,64.2,28.7,64.2,64.2v305.1Z"/>
      <path class="cls-1" d="M242,337.1c-8.1-1.3-15.6,2-23.2,3.7-2.4.7-4.8.9-7.5,1.1,1.8-2.6,3.5-5.5,4.8-8.3,1.3-3.3,2-6.8-.9-9.6s-5.9-2.8-9-2c-5.3,1.3-9.2,5.5-11.6,10.1-2,3.7-4.6,9-3.5,13.4-3.9-.7-5.7-10.1-6.4-12.9-1.1-3.7-2.6-8.8-5.9-11-4.8-3.3-9,.2-12.1,3.7-5,5.7-11,10.3-17.5,13.8-7.2,3.9-15.3,6.4-23.7,7-2.8.2-5.5,2.4-5.5,5.5s2.4,5.7,5.5,5.5c10.1-.9,19.9-3.7,28.9-8.3,4.4-2.4,8.5-5,12.3-8.3,1.8-1.5,3.5-3.1,5.3-4.6l2-2c.4,1.1.7,2.2.9,3.3.7,3.1,1.5,5.9,2.8,8.8,2.4,5,6.8,9.4,12.3,10.3,4.6.7,8.5-1.1,12.1-3.7,3.3.4,6.6.7,10.1.4,7.7-.7,14.5-3.1,21.9-4.8,4.2-.9,10.7-1.1,11.8,4.2,1.5,6.8,12.1,3.9,10.5-2.8-1.8-6.6-7.9-11.2-14.5-12.3Z"/>
      <path class="cls-1" d="M251.2,295c0-2.4-2-4.4-4.4-4.4H59.6c-2.4,0-4.4,2-4.4,4.4s2,4.4,4.4,4.4h187.2c2.4,0,4.4-2,4.4-4.4Z"/>
      <path class="cls-1" d="M59.6,268.3h187.2c2.4,0,4.4-2,4.4-4.4s-2-4.4-4.4-4.4H59.6c-2.4,0-4.4,2-4.4,4.4s2,4.4,4.4,4.4Z"/>
      <path class="cls-1" d="M59.6,236.9h187.2c2.4,0,4.4-2,4.4-4.4s-2-4.4-4.4-4.4H59.6c-2.4,0-4.4,2-4.4,4.4s2,4.4,4.4,4.4Z"/>
      <path class="cls-1" d="M59.6,205.8h187.2c2.4,0,4.4-2,4.4-4.4s-2-4.4-4.4-4.4H59.6c-2.4,0-4.4,2-4.4,4.4s2,4.4,4.4,4.4Z"/>
      <path class="cls-1" d="M181,125.4c7.2,0,13.2-5.9,13.2-13.2s-5.9-13.2-13.2-13.2-13.2,5.9-13.2,13.2,5.9,13.2,13.2,13.2ZM181,105.6c3.7,0,6.6,2.8,6.6,6.6s-2.8,6.6-6.6,6.6-6.6-2.8-6.6-6.6,3.1-6.6,6.6-6.6Z"/>
      <path class="cls-1" d="M90.5,111.8v53h-9.6c-2.4,0-4.4,2-4.4,4.4s2,4.4,4.4,4.4h150.4c2.4,0,4.4-2,4.4-4.4s-2-4.4-4.4-4.4h-13.8v-63.1c0-5.7-3.5-11-8.8-12.9l-46.5-18.8c-2.8-1.1-6.1-.7-8.8.9-2.6,1.8-4.2,4.6-4.2,7.7v1.5l-49.8,18.6c-5.5,2.4-9,7.7-9,13.2ZM188.7,165h-12.3v-20.8h12.3v20.8ZM102.4,107.2l46.5-17.3-.7,39h-7.5v-14.2c0-1.8-1.5-3.3-3.3-3.3h-22.6c-1.8,0-3.3,1.5-3.3,3.3v14.2h-5c-2.4,0-4.4,2-4.4,4.4s2,4.4,4.4,4.4h46c2.4,0,4.4-2,4.4-4.4l.9-54.4c0-.2.2-.4.4-.7.2-.2.4-.2.7,0l46.5,18.8c2,.7,3.3,2.6,3.3,4.8v63.1h-13.4v-22.6c0-2.6-2.2-4.8-5-4.8h-15.3c-2.8,0-5,2.2-5,4.8v22.6h-70.6v-53c0-2.2,1.3-4.2,3.1-4.8ZM134.4,117.9v11h-16v-11h16Z"/>
      <path class="cls-1" d="M158.9,60.5l81.1,33.1c.4.2,1.1.2,1.8.2,1.8,0,3.3-1.1,4.2-2.6.9-2.2-.2-4.8-2.4-5.7l-81.1-33.1c-2.2-.9-4.8.2-5.7,2.4-1.1,2.2,0,4.8,2.2,5.7Z"/>
      <path class="cls-1" d="M74.7,100.4c.7,0,1.1-.2,1.8-.4l64.7-27.8c2.2-.9,3.3-3.5,2.2-5.7s-3.5-3.3-5.7-2.2l-64.7,27.8c-2.2.9-3.3,3.5-2.2,5.7.7,1.8,2.2,2.6,3.9,2.6Z"/>
    </g>
  </g>
</svg>